<?xml version="1.0" encoding="utf-8"?>
<svg version="1.1" id="Layer_1" xmlns="http://www.w3.org/2000/svg" xmlns:xlink="http://www.w3.org/1999/xlink" x="0px" y="0px"
	 viewBox="0 0 350 75" style="enable-background:new 0 0 350 75;" xml:space="preserve">
<path d="M4.19,74V63.55h23.82c2.27,0,2.82-0.09,2.82-2.73v-3.64c0-2.64-0.55-2.73-2.82-2.73H12.1c-6.82,0-10-1.55-10-9.64V33.64
	c0-8.09,3.18-9.64,10-9.64h27.36v10.45H15.82c-2.27,0-2.82,0.09-2.82,2.73v4.09c0,2.18,0.36,2.73,1.73,2.73h17
	c6.82,0,10,1.55,10,9.64v10.73c0,8.09-3.18,9.64-10,9.64H4.19z"/>
<path d="M74.12,74l26-50h11l-25,50H74.12z"/>
<path d="M243.39,74V63.55h23.82c2.27,0,2.82-0.09,2.82-2.73v-3.64c0-2.64-0.55-2.73-2.82-2.73H251.3c-6.82,0-10-1.55-10-9.64V33.64
	c0-8.09,3.18-9.64,10-9.64h27.36v10.45h-23.64c-2.27,0-2.82,0.09-2.82,2.73v4.09c0,2.18,0.36,2.73,1.73,2.73h17
	c6.82,0,10,1.55,10,9.64v10.73c0,8.09-3.18,9.64-10,9.64H243.39z"/>
<path d="M319.31,73.97l0.1-36.9c0.01-2.64-0.54-2.73-2.82-2.74l-17.49-0.05l-0.1,39.63l-10.93-0.03L288.25,1l10.93,0.03l-0.06,22.78
	l21.23,0.06c6.83,0.02,10.02,1.58,10,9.68L330.24,74L319.31,73.97z"/>
<g>
	<path d="M37.14,4.21h8.91l0.2-0.06l1.11,1.11L45.59,8.3c-0.17,0.3-0.54,0.82-1.11,1.56c1.34,1.3,2.28,2.23,2.8,2.8
		c0.35,0.35,1.11,1.23,2.28,2.67l-1.5,1.17c-0.56-0.87-1.08-1.58-1.56-2.15c-1.04-1.21-2.04-2.3-2.99-3.25
		c-1.39,1.47-2.47,2.49-3.25,3.06c-1.21,0.91-2.43,1.65-3.64,2.21c-0.09-0.17-0.26-0.46-0.52-0.85c-0.09-0.09-0.16-0.18-0.23-0.29
		c-0.07-0.11-0.21-0.23-0.42-0.36c2.3-1,4.16-2.15,5.59-3.45c1.3-1.21,2.69-3.12,4.16-5.72h-8.06V4.21z"/>
	<path d="M53.2,7.07h11.31L64.83,7l0.91,0.85c-0.95,2.08-1.75,3.58-2.41,4.49c-0.69,0.91-1.56,1.73-2.6,2.47
		c-1.43,0.95-3.25,1.69-5.46,2.21c-0.04-0.22-0.13-0.54-0.26-0.98c-0.04-0.09-0.22-0.33-0.52-0.71c1.82-0.26,3.25-0.67,4.29-1.24
		c1.13-0.61,2.04-1.32,2.73-2.15c0.69-0.82,1.37-1.95,2.02-3.38H53.2V7.07z M54.76,4.79V3.3h9.04v1.5H54.76z"/>
	<path d="M82.58,10.38h-13.2V8.76h13.2V10.38z"/>
	<path d="M99.22,10.38h-13.2V8.76h13.2V10.38z"/>
	<path d="M115.87,10.38h-13.2V8.76h13.2V10.38z"/>
	<path d="M132.51,10.38h-13.2V8.76h13.2V10.38z"/>
	<path d="M149.15,10.38h-13.2V8.76h13.2V10.38z"/>
	<path d="M165.79,10.38h-13.2V8.76h13.2V10.38z"/>
	<path d="M182.44,10.38h-13.2V8.76h13.2V10.38z"/>
	<path d="M199.08,10.38h-13.2V8.76h13.2V10.38z"/>
	<path d="M203.89,8.17l1.24-0.65c0.22,0.43,0.46,0.9,0.75,1.4c0.28,0.5,0.57,1.05,0.88,1.66l-1.3,0.65
		C204.97,10.1,204.45,9.08,203.89,8.17z M206.3,17.47c-0.22-0.56-0.48-1-0.78-1.3c1.56-0.52,2.77-1.08,3.64-1.69
		c0.82-0.56,1.58-1.39,2.28-2.47c0.61-1.04,1.21-2.69,1.82-4.94l1.5,0.52c-0.69,2.17-1.3,3.73-1.82,4.68
		c-0.61,1.08-1.34,1.99-2.21,2.73C209.5,16.08,208.03,16.91,206.3,17.47z M207.21,7.2l1.3-0.58c0.61,1.3,1.06,2.34,1.37,3.12
		l-1.24,0.59C208.38,9.58,207.9,8.54,207.21,7.2z"/>
	<path d="M223.65,8.82l-0.84,1.43l-1.82-0.98c-0.09-0.04-0.56-0.24-1.43-0.58l0.65-1.37C221.72,7.85,222.87,8.35,223.65,8.82z
		 M231.84,6.87c0.43,0.61,0.8,1.04,1.11,1.3c-1.52,1.86-3.19,3.47-5.01,4.81c-1.6,1.17-3.88,2.36-6.83,3.58l-0.78-1.76
		c1.78-0.61,3.21-1.19,4.29-1.75c1.43-0.78,2.67-1.63,3.71-2.54C229.63,9.39,230.8,8.17,231.84,6.87z M225.47,4.92l-0.91,1.3
		c-1.47-0.91-2.56-1.54-3.25-1.89l0.78-1.3C223.22,3.56,224.35,4.19,225.47,4.92z"/>
	<path d="M245.69,8.04l-0.59,6.5h3.12v1.5h-11.7v-1.5h6.96l0.46-5.14h-5.98V8.04H245.69z"/>
</g>
<path d="M155.03,74c-6.82,0-10-1.55-10-9.64v-12c0-8.09,3.18-9.64,10-9.64h21.18v-5.55c0-2.64-0.55-2.73-2.82-2.73h-27.36V24h31.09
	c6.82,0,10,1.55,10,9.64v30.73c0,8.09-3.18,9.64-10,9.64H155.03z M176.22,53.18h-17.45c-2.27,0-2.82,0.09-2.82,2.73v4.91
	c0,2.64,0.55,2.73,2.82,2.73h14.64c2.27,0,2.82-0.09,2.82-2.73V53.18z"/>
<polygon points="65.32,24 45.32,49 65.32,74 73.32,67 58.32,49 73.32,31 "/>
<polygon points="119.92,24 139.92,49 119.92,74 111.92,67 126.92,49 111.92,31 "/>
<path d="M205.01,74c-6,0-8.8-1.36-8.8-8.48V54.96c0-7.12,2.8-8.48,8.8-8.48h18.64V41.6c0-2.32-0.48-2.4-2.48-2.4h-24.08V30h27.36
	c6,0,8.8,1.36,8.8,8.48v27.04c0,7.12-2.8,8.48-8.8,8.48H205.01z M223.65,55.68h-15.36c-2,0-2.48,0.08-2.48,2.4v4.32
	c0,2.32,0.48,2.4,2.48,2.4h12.88c2,0,2.48-0.08,2.48-2.4V55.68z"/>
<g>
	<path d="M337.49,56.2V1h10.41v55.2H337.49z M337.49,74V63.69h10.41V74H337.49z"/>
</g>
</svg>
